Coordinates
version=1
nRows=8
nColumns=33
inDegrees=yes

Units are S.I. units (second, meters, Newtons, ...)
Angles are in degrees.

endheader
time	ground_thorax_rot_x	ground_thorax_rot_y	ground_thorax_rot_z	ground_thorax_tx	ground_thorax_ty	ground_thorax_tz	clav_prot_r	clav_elev_r	scapula_abduction_r	scapula_elevation_r	scapula_upward_rot_r	scapula_winging_r	shoulder_elv_r	plane_of_elev_r	axial_rot_r	elbow_flexion_r	pro_sup_r	wrist_flex_r	wrist_dev_r	clav_prot_l	clav_elev_l	scapula_abduction_l	scapula_elevation_l	scapula_upward_rot_l	scapula_winging_l	shoulder_elv_l	plane_of_elev_l	axial_rot_l	elbow_flexion_l	pro_sup_l	wrist_flex_l	wrist_dev_l
      2.08000000	     -2.63455172	      5.29999739	     10.32781034	     -0.10136143	      1.02828790	      0.01095869	     16.25836986	    -13.53441232	     41.42435294	    -13.80878565	     23.39506276	    -11.20832710	     -1.98897222	    -55.22690373	    123.26974009	    -30.25025505	   -131.45157227	     -2.31613825	      2.85793283	     24.35005828	    -10.67022437	    -36.49155000	     -5.65023139	    -23.53125447	     12.03641203	     53.04665054	      1.84495284	      4.13975165	     11.66336400	     12.73964489	     18.01326751	     -2.77332548
      2.09000000	     -2.68485499	      5.18304090	     10.26759030	     -0.10185240	      1.02901717	      0.01086590	     16.89261423	    -14.14734326	     42.35630003	    -14.30573004	     23.37418203	    -11.27311050	     -1.83607671	    -55.86691797	    123.12214713	    -30.18380175	   -132.31346917	     -2.01379328	      2.32297738	     24.50232797	    -10.70928229	    -36.74843282	     -5.53681121	    -23.37583777	     12.18980666	     52.94137722	      1.59748584	      4.33354182	     11.56340703	     11.73271358	     17.31508519	     -3.15594941
      2.10000000	     -2.66269703	      5.21098288	     10.25710558	     -0.10176971	      1.02929868	      0.01111944	     16.89983784	    -14.15078802	     42.35784539	    -14.30422452	     23.36020908	    -11.27599057	     -1.85175153	    -55.87358939	    123.13102060	    -30.16794119	   -132.31496153	     -2.01535694	      2.32508654	     24.49952835	    -10.69945921	    -36.74582483	     -5.54561602	    -23.37626967	     12.19172138	     52.94508195	      1.58835777	      4.33165464	     11.55911734	     11.73171021	     17.31345375	     -3.15517551
      2.11000000	     -2.68237907	      5.36867135	     10.28855283	     -0.10196786	      1.02943869	      0.01122024	     16.92976787	    -14.13308449	     42.36789292	    -14.27366368	     23.30545511	    -11.30164917	     -1.89500332	    -55.98382224	    123.17020699	    -30.05932307	   -132.33996619	     -2.03346756	      2.33818370	     24.48848987	    -10.67544129	    -36.73023132	     -5.55390769	    -23.34882591	     12.18603706	     52.94284369	      1.60915479	      4.26671228	     11.61307098	     11.71646834	     17.29721699	     -3.16936069
      2.12000000	     -2.70834699	      5.40255000	     10.46309347	     -0.10238815	      1.02909921	      0.01134202	     16.95516766	    -13.95817133	     42.46313769	    -14.13897976	     23.37246534	    -11.45407715	     -2.12115973	    -56.11665236	    123.30621315	    -29.85958940	   -132.78203873	     -2.05671723	      2.44074675	     24.53114935	    -10.52224699	    -36.81140713	     -5.73816673	    -23.47192131	     12.26887690	     52.85964922	      1.39550159	      3.33516980	     12.09822094	     11.52776510	     17.12975801	     -3.34069988
      2.13000000	     -2.69445716	      5.41323350	     10.43877386	     -0.10272816	      1.02918261	      0.01147831	     16.95343453	    -13.93711205	     42.44261910	    -14.11351138	     23.34453549	    -11.46198599	     -2.10894026	    -56.17087579	    123.28748971	    -29.84391035	   -132.78940730	     -2.06128509	      2.44069352	     24.52576726	    -10.48979271	    -36.80738608	     -5.76311664	    -23.46610040	     12.27816935	     52.88799846	      1.36678275	      3.33495601	     12.09965537	     11.52213413	     17.12571912	     -3.34164249
      2.14000000	     -2.68951828	      5.57051301	     10.70829250	     -0.10296873	      1.02875741	      0.01179205	     16.96390589	    -13.70128287	     42.27977993	    -13.83464926	     23.05598101	    -11.58546711	     -2.54376952	    -56.11183485	    122.70355262	    -29.95254904	   -134.45299125	     -2.00632719	      2.68638367	     24.40685714	    -10.52033604	    -36.60849869	     -5.73313195	    -23.44270738	     12.14937288	     52.80743929	      0.74664720	      2.26618119	     12.83851142	     10.57205192	     16.80571058	     -3.57352642
      2.15000000	     -2.70001890	      5.58651014	     10.68877424	     -0.10354970	      1.02858994	      0.01187663	     16.95466129	    -13.67238824	     42.25373345	    -13.80573402	     23.04088046	    -11.59956571	     -2.51350047	    -56.17755394	    122.67919004	    -29.95890684	   -134.46825762	     -2.00592988	      2.67894751	     24.39867162	    -10.47306054	    -36.60380670	     -5.76340118	    -23.42082984	     12.15672166	     52.86037204	      0.71811400	      2.28130994	     12.85119425	     10.55863904	     16.79893435	     -3.57544847
